<mxfile host="app.diagrams.net" modified="2022-12-01T10:08:04.793Z" agent="5.0 (Windows)" etag="nLMvFqsZ6P8707954rPN" version="20.6.0" type="github">
  <diagram name="Page-1" id="03018318-947c-dd8e-b7a3-06fadd420f32">
    <mxGraphModel dx="1422" dy="724" grid="1" gridSize="10" guides="1" tooltips="1" connect="1" arrows="1" fold="1" page="1" pageScale="1" pageWidth="1100" pageHeight="850" background="#ffffff" math="0" shadow="0">
      <root>
        <mxCell id="0" />
        <mxCell id="1" parent="0" />
        <mxCell id="aPQpte9jZzaYuk0KDLrv-9" value="&lt;div&gt;&lt;font style=&quot;font-size: 18px;&quot;&gt;Description de la situation&lt;/font&gt;&lt;/div&gt;" style="whiteSpace=wrap;html=1;rounded=0;shadow=0;labelBackgroundColor=none;strokeWidth=1;fontFamily=Verdana;fontSize=28;align=left;comic=1;" vertex="1" parent="1">
          <mxGeometry x="130" y="270" width="880" height="130" as="geometry" />
        </mxCell>
        <mxCell id="aPQpte9jZzaYuk0KDLrv-1" value="" style="whiteSpace=wrap;html=1;rounded=0;shadow=0;labelBackgroundColor=none;strokeColor=#000000;strokeWidth=1;fillColor=none;fontFamily=Verdana;fontSize=12;fontColor=#000000;align=center;comic=1;" vertex="1" parent="1">
          <mxGeometry x="30" y="10" width="1060" height="810" as="geometry" />
        </mxCell>
        <mxCell id="aPQpte9jZzaYuk0KDLrv-2" value="&lt;font style=&quot;font-size: 14px;&quot;&gt;Menu principal&lt;br&gt;&lt;/font&gt;" style="whiteSpace=wrap;html=1;rounded=0;shadow=0;labelBackgroundColor=none;strokeWidth=1;fontFamily=Verdana;fontSize=28;align=center;comic=1;" vertex="1" parent="1">
          <mxGeometry x="40" y="60" width="190" height="50" as="geometry" />
        </mxCell>
        <mxCell id="aPQpte9jZzaYuk0KDLrv-4" value="&lt;font style=&quot;font-size: 14px;&quot;&gt;Se déconnecter &lt;br&gt;&lt;/font&gt;" style="whiteSpace=wrap;html=1;rounded=0;shadow=0;labelBackgroundColor=none;strokeWidth=1;fontFamily=Verdana;fontSize=28;align=center;comic=1;" vertex="1" parent="1">
          <mxGeometry x="860" y="60" width="190" height="50" as="geometry" />
        </mxCell>
        <mxCell id="aPQpte9jZzaYuk0KDLrv-5" value="&lt;font style=&quot;font-size: 14px;&quot;&gt;Paramètres &lt;br&gt;&lt;/font&gt;" style="whiteSpace=wrap;html=1;rounded=0;shadow=0;labelBackgroundColor=none;strokeWidth=1;fontFamily=Verdana;fontSize=28;align=center;comic=1;" vertex="1" parent="1">
          <mxGeometry x="870" y="750" width="190" height="50" as="geometry" />
        </mxCell>
        <mxCell id="aPQpte9jZzaYuk0KDLrv-6" value="&lt;font style=&quot;font-size: 14px;&quot;&gt;J&#39;ai besoin d&#39;aide&lt;br&gt;&lt;/font&gt;" style="whiteSpace=wrap;html=1;rounded=0;shadow=0;labelBackgroundColor=none;strokeWidth=1;fontFamily=Verdana;fontSize=28;align=center;comic=1;" vertex="1" parent="1">
          <mxGeometry x="60" y="750" width="190" height="50" as="geometry" />
        </mxCell>
        <mxCell id="aPQpte9jZzaYuk0KDLrv-7" value="&lt;font style=&quot;font-size: 18px;&quot;&gt;Titre de la situation vécue&lt;/font&gt;" style="whiteSpace=wrap;html=1;rounded=0;shadow=0;labelBackgroundColor=none;strokeWidth=1;fontFamily=Verdana;fontSize=28;align=center;comic=1;" vertex="1" parent="1">
          <mxGeometry x="140" y="130" width="810" height="50" as="geometry" />
        </mxCell>
        <mxCell id="aPQpte9jZzaYuk0KDLrv-8" value="&lt;font style=&quot;font-size: 18px;&quot;&gt;Outil cible utilisé&lt;/font&gt;" style="whiteSpace=wrap;html=1;rounded=0;shadow=0;labelBackgroundColor=none;strokeWidth=1;fontFamily=Verdana;fontSize=28;align=center;comic=1;" vertex="1" parent="1">
          <mxGeometry x="410" y="200" width="300" height="50" as="geometry" />
        </mxCell>
        <mxCell id="aPQpte9jZzaYuk0KDLrv-10" value="Autres ressources ou supports mobilisés" style="whiteSpace=wrap;html=1;rounded=0;shadow=0;labelBackgroundColor=none;strokeWidth=1;fontFamily=Verdana;fontSize=18;align=left;comic=1;" vertex="1" parent="1">
          <mxGeometry x="395" y="410" width="300" height="50" as="geometry" />
        </mxCell>
        <mxCell id="aPQpte9jZzaYuk0KDLrv-11" value="Difficultés et/ou satisfactions rencontrées" style="whiteSpace=wrap;html=1;rounded=0;shadow=0;labelBackgroundColor=none;strokeWidth=1;fontFamily=Verdana;fontSize=18;align=left;comic=1;" vertex="1" parent="1">
          <mxGeometry x="395" y="470" width="300" height="50" as="geometry" />
        </mxCell>
        <mxCell id="aPQpte9jZzaYuk0KDLrv-12" value="Astuces et futurs imaginés pour la situation" style="whiteSpace=wrap;html=1;rounded=0;shadow=0;labelBackgroundColor=none;strokeWidth=1;fontFamily=Verdana;fontSize=18;align=center;comic=1;" vertex="1" parent="1">
          <mxGeometry x="140" y="540" width="870" height="50" as="geometry" />
        </mxCell>
        <mxCell id="aPQpte9jZzaYuk0KDLrv-13" value="&lt;div&gt;&lt;font style=&quot;font-size: 18px;&quot;&gt;Lieu(x), personne(s) présent(s), déroulement&lt;br&gt;&lt;/font&gt;&lt;/div&gt;" style="whiteSpace=wrap;html=1;rounded=0;shadow=0;labelBackgroundColor=none;strokeWidth=1;fontFamily=Verdana;fontSize=28;align=left;comic=1;" vertex="1" parent="1">
          <mxGeometry x="390" y="320" width="510" height="50" as="geometry" />
        </mxCell>
        <mxCell id="aPQpte9jZzaYuk0KDLrv-14" value="Visuel" style="whiteSpace=wrap;html=1;rounded=0;shadow=0;labelBackgroundColor=none;strokeWidth=1;fontFamily=Verdana;fontSize=18;align=center;comic=1;" vertex="1" parent="1">
          <mxGeometry x="140" y="620" width="870" height="50" as="geometry" />
        </mxCell>
        <mxCell id="aPQpte9jZzaYuk0KDLrv-15" value="En dire plus..." style="whiteSpace=wrap;html=1;rounded=0;shadow=0;labelBackgroundColor=none;strokeWidth=1;fontFamily=Verdana;fontSize=18;align=center;comic=1;" vertex="1" parent="1">
          <mxGeometry x="140" y="690" width="870" height="50" as="geometry" />
        </mxCell>
      </root>
    </mxGraphModel>
  </diagram>
</mxfile>
